<?xml version="1.0" encoding="UTF-8" standalone="no"?>
<!-- Generator: Adobe Illustrator 26.0.3, SVG Export Plug-In . SVG Version: 6.00 Build 0)  -->

<svg
   version="1.1"
   id="Layer_1"
   x="0px"
   y="0px"
   viewBox="0 0 301.7 134.3"
   style="enable-background:new 0 0 301.7 134.3;"
   xml:space="preserve"
   sodipodi:docname="Logo.svg"
   inkscape:version="1.4-beta3 (01c8a1c, 2024-08-28, custom)"
   xmlns:inkscape="http://www.inkscape.org/namespaces/inkscape"
   xmlns:sodipodi="http://sodipodi.sourceforge.net/DTD/sodipodi-0.dtd"
   xmlns="http://www.w3.org/2000/svg"
   xmlns:svg="http://www.w3.org/2000/svg"><defs
   id="defs7" /><sodipodi:namedview
   id="namedview7"
   pagecolor="#505050"
   bordercolor="#eeeeee"
   borderopacity="1"
   inkscape:showpageshadow="0"
   inkscape:pageopacity="0"
   inkscape:pagecheckerboard="0"
   inkscape:deskcolor="#505050"
   inkscape:zoom="4.3447505"
   inkscape:cx="84.584835"
   inkscape:cy="64.790833"
   inkscape:window-width="3440"
   inkscape:window-height="1369"
   inkscape:window-x="-8"
   inkscape:window-y="-8"
   inkscape:window-maximized="1"
   inkscape:current-layer="Layer_1-2" />
<style
   type="text/css"
   id="style1">
	.st0{fill:#000017;}
	.st1{fill:#00001C;}
	.st2{font-family:'CenturyGothic';}
	.st3{font-size:26.96px;}
	.st4{fill:#00000F;}
	.st5{font-size:18px;}
</style>
<g
   id="Layer_2_00000037654565856960455110000004820060366034216373_">
	<g
   id="Layer_1-2">
		<path
   class="st0"
   d="M83,91.2c0.6-0.1,1.2,0.3,1.2,0.9c0,0.1,0,0.2,0,0.3c-1.1,0.3-2.1,0.7-3,1.2c-3.3,1.5-9.5,4-18.6,7.5    s-20.9,6.4-35.4,8.8c-0.5,0-0.9,0-1.4,0.1c-0.5,0.1-0.9,0.1-1.4,0.1c-1,0.2-2.1,0.3-3.4,0.4s-2.4,0.1-3.4,0.1    c-4.4,0-8.6-1.2-12.2-3.6C1.8,104.7,0,100.7,0,95c0-4.2,2-9.7,5.9-16.5s10.4-14.8,19.4-23.8c-5.5,0-10.1-1.1-13.8-3.2    S6,45.6,6,40.2c-0.1-4.9,1.4-9.7,4.2-13.8c2.7-3.9,6.1-7.4,9.9-10.2c3.5-2.7,7.2-5,11.1-6.9c3.7-1.8,6.3-3,8-3.6    c0,0,3.7-1.1,4-1.2C45.6,3.8,48,3.3,50.4,3c1.9-0.2,3.5-0.2,4.6-0.2h0.5c0.2,0,1.8,0.3,2,0.4c0.3,0.1,1,0.6,1,0.6    c-2.3,0.2-4.9,0.5-7.8,0.9C48.1,5,45.5,5.5,43,6.2c-0.3,0-3.2,1-3.5,1.2l-1.8,0.8c0,0-1.4,0.6-1.5,0.8L34,10    c-0.3,0.2-1.3,0.8-3,1.8s-3.7,2.3-6,4l-0.8,0.8l-2.8,2.2L20.2,20c-3.1,2.8-5.8,6.1-8,9.8c-2.2,3.5-3.6,7.4-4,11.5    c1,4.5,3.5,7.5,7.4,8.9c3.9,1.4,8,2.2,12.1,2.4C32.6,48.2,38,43.8,44,39.2s12.1-8.8,18.4-12.8c6.2-4,12.4-7.7,18.4-11    S92,9.3,96.5,7c1.2-0.5,1.4-0.5,2.8-1.2c2.3-1.2,5-2.4,8-3.8s5.2-2,6.8-2c0.4,0,0.8,0.1,1.2,0.2c0.5,0.2,0.9,0.8,1.2,1.8    c0.4,4.2-0.7,8.4-3.2,11.8c-2.9,4-6.2,7.7-10,10.9c-4,3.4-8.3,6.5-12.8,9.2c-4.5,2.7-8.3,5-11.5,6.9c-6.3,4-13.1,7-20.2,8.9    C51.9,51.5,45,52.9,38,54c-2,0-4.3,1-6.9,3.1c-2.7,2.2-5.2,4.7-7.5,7.4C21.2,67.3,19,70.2,17,73c-2,2.8-3.4,5-4.2,6.5    c-1.3,2-2.5,4.1-3.6,6.2c-1.6,3.1-2.4,6.5-2.4,10c0,2.3,0.8,4.6,2.2,6.4c1.5,1.9,4.9,2.9,10.2,2.9c6,0,12-0.5,18-1.5    c5.9-1,11.8-2.2,17.6-3.8c5.6-1.5,10.7-3,15.5-4.6 M46.2,44.2c-0.8,0.6-1.5,1.3-2.2,2c-0.7,0.7-1.5,1.4-2.2,2l-4,3.2    c4.3-0.7,9-1.6,14.1-2.9c5-1.2,9.9-2.9,14.6-4.9c4.7-2.2,9.3-4.7,13.8-7.4c5.2-3.1,10.1-6.5,14.9-10.3c4.4-3.4,8.5-7.3,12.1-11.6    c3.3-4,5.1-7.8,5.2-11.5c-2.7,1.2-5.3,2.4-7.9,3.9c-3.9,2.1-8.8,4.9-14.6,8.4s-12.5,7.7-19.9,12.5C62.7,32.6,54.8,38.1,46.2,44.2z    "
   id="path1" />
		<path
   class="st0"
   d="M76.3,95.8l-0.1-0.6l2-0.5L90,90c1.6-1.6,3.4-3,5.5-3.9c1.3-0.6,2.6-1,4-1.4c0.4-0.1,1.5-0.1,1.8-0.1    c0.6,0,1,0.1,1.7,0.3c0.4,0.1,1,0.8,1,0.8c1-1.5,1.8-2.2,2.2-2.2c0.7,0,1.8,0.8,3.2,2.2c0.4,0.4,0.5,0.6,0.5,0.8l-2,4.2    c-0.3,0.7-0.8,1.5-1.4,2.5c-0.5,0.8-0.8,1.8-0.9,2.8c0,0.3,0.3,0.5,1,0.5c2.3,0,4.6-0.2,6.9-0.8c2.1-0.5,3.9-1,5.5-1.5    c1.8-0.6,3.6-1.4,5.4-2.2h0.2l1,0.5c0,0,0.5,0.4,0.2,0.7c0,0-1.1,0.3-1.5,0.5c-2.2,1-6.4,3.7-8,4.8c-1.9,1.3-5.4,2.3-10.2,3    c-1,0-2-0.1-3-0.4c-1.2-0.4-2.2-1.3-2.8-2.4c-1,0.6-2,1.1-3,1.5c-1.5,0.6-3.1,1.1-4.8,1.5c-1.3-0.2-2.5-0.5-3.6-1    c-1.7-0.7-2.6-2.2-2.6-4.5c0-1,0.2-2.1,0.8-3c-1.2,0.3-2.4,0.6-3.9,0.8C78.7,94.6,76.3,95.8,76.3,95.8z M88.8,91l0.5-0.5L89,90.8    l0,0L88.8,91z M91.8,96.2c1.1,1.1,3.2-0.3,4.6-1c1.2-0.6,2.2-1.4,3.1-2.4c0.7-0.8,1.3-1.6,1.9-2.5c0.3-0.4,0.5-0.9,0.6-1.4    c0-0.3-0.2-0.5-0.8-0.5c-1.8,0.2-3.6,0.8-5.1,1.9c-2,1.1-3.9,2.7-4.4,4.9C91.7,95.5,91.6,96.1,91.8,96.2z"
   id="path2" />
		<path
   class="st0"
   d="M159.2,87.2c0.8,0,1.5,0.2,2.2,0.5c0.6,0.3,1.1,0.8,1.2,1.5c-0.1,0.8-0.5,1.6-1,2.2c-0.3,0.4-0.5,0.8-0.8,1.2    l-0.2,0.2c-0.5,0.1-1.1-0.2-1.2-0.8c0-0.3,0.1-0.6,0.2-0.9c0.2-0.3,0.3-0.7,0.2-1.1c-2.2,1-4.5,2.2-7.1,3.8s-5,3-7.4,4.4l-6,3.6    c-0.9,0.6-1.8,1.1-2.8,1.5c0.2,0-0.5-0.3-2-1s-2.2-1.2-2.2-1.8c0.3-1.7,1.9-4.7,4.8-9l0.2-0.2c-1.7,0-3.4,0.1-5.1,0.4    c-1.6,0.2-3.3,0.6-4.9,1c-1.5,0.4-2.8,0.8-3.8,1c-0.6,0.2-1.2,0.3-1.8,0.4c-0.7,0-1-0.6-1-0.6c1.5-0.8,3-2.1,4.4-3.1    c2.8-1.8,7-3.1,12.6-3.8h0.2c0.8,0,1.7,0.1,2.5,0.2c1.1,0.4,2,1.2,2.5,2.2c0,1-0.1,1.9-0.2,2.9c-0.2,0.6-0.3,1.1-0.5,1.6    c0.7-0.3,1.7-0.9,3-1.6c1.3-0.7,2.8-1.5,4.5-2.2c1.6-0.7,3.3-1.4,5-1.9C156.4,87.5,157.8,87.3,159.2,87.2z"
   id="path3" />
		<path
   class="st0"
   d="M174.6,102.7c-0.9,0-1.8-0.1-2.8-0.2c-1.1-0.2-2.2-0.7-3.2-1.2l-0.2-0.2c-0.3-0.7-0.7-1.4-1-2.1    c-0.3-0.7-0.5-1.6-0.5-2.4c0-0.2,0-0.3,0-0.5c0.2-0.5-0.2-1.1-0.7-1.2c-0.2-0.1-0.4-0.1-0.6,0l-2.1,0.6c-1.6,0.4-4.3,1.1-4.3,1.1    l-0.8-0.5l11.2-5l0,0c0,0,3.8-2.8,5.9-3.6c1.3-0.5,2.6-1,4-1.4h0.2c1,0,1.9,0,2.9,0.2c0,0,1.2,0.4,1.5,0.8c0,0,1.7,1,2.3,1.5    c0.3,0,0.7-0.1,1-0.2c0.3-0.2,0.7-0.2,1-0.2c0.6,0.1,1.2,0.4,1.6,0.9c0.8,0.6,1.1,1.7,1.1,3.4c-0.1,1.3-0.5,2.6-1.3,3.7    c-0.3,0.4-0.3,1.1,0.2,1.4c0.3,0.2,0.6,0.3,0.9,0.2c0.4-0.1,0.9-0.2,1.3-0.3c1.4-0.3,2.8-0.7,4.1-1.1l3.6-1.1    c0.7-0.2,1.4-0.4,2.1-0.5c0.1,0,0.4,0.1,0.5,0.2c0.3,0.3,0.5,0.9,0.2,1.2c-0.3,0.5-1.1,0.5-2.3,1.1s-2.6,1.2-4.2,2    s-3.4,1.5-5.1,2.1s-2.5,1.2-4.4,1.6c-1,0.2-3.9-0.3-4.4-1c-0.2-0.2-0.5-0.4-0.8-0.3c-1,0.1-2,0.3-3,0.6    C177.3,102.5,175.9,102.7,174.6,102.7z M172.1,95.8c-0.3,0.4-0.2,1.1,0.2,1.4c0.2,0.2,0.5,0.2,0.8,0.2c2.7-0.1,5.3-0.6,7.8-1.6    c2.8-1.1,4.2-2.3,4.2-3.6c0-0.4-0.1-0.8-0.2-1.1c-0.1-0.2-0.2-0.4-0.2-0.6c0-0.2,0.2-0.4,0.5-0.8c-0.9-0.4-1.8-0.5-2.8-0.5    c-1.3,0-2.5,0.3-3.6,0.9c-1.3,0.6-2.4,1.3-3.5,2.2c-1,0.8-1.9,1.7-2.6,2.8C172.4,95.3,172.2,95.5,172.1,95.8z"
   id="path4" />
		<path
   class="st0"
   d="M247.1,91.7c0.4-0.1,0.7,0.2,0.8,0.6c0,0.1,0,0.1,0,0.2c0-0.2-0.1,0-0.2,0.5c-0.2,0.5-0.7,0.8-1.2,0.8    c-0.2,0-0.5,0.4-1,1.1c-0.6,0.9-1.4,1.6-2.2,2.2c-1.1,0.8-2.3,1.5-3.5,2.1c-1.4,0.7-2.9,1-4.5,1c-1.2,0-2.5-0.2-3.6-0.8    c-1.1-0.5-1.6-1.6-1.6-3.2c-1.8,2.1-4,3.8-6.5,5c-2.6,1.5-5.5,2.4-8.5,2.5c-0.9,0-1.8-0.3-2.6-0.8c-0.8-0.4-1.4-1-1.9-1.8l-0.5-1    c-0.1-0.6-0.2-1.2-0.2-1.8l0.2-1.5c0.3-0.8,0.6-1.5,0.8-2c0.2-0.5,0.4-1,0.8-1.5c-0.9,0.4-1.9,0.6-2.9,0.8c-1,0.1-2,0.4-2.9,0.8    c-1.1,0.4-2.1,0.6-3.2,0.8c0,0-0.9,0.2-1,0c-0.1-0.5,1.5-0.8,2-1c3.9-1.3,7.4-3.6,10.9-5.9c2.3-1.6,3.5-2.4,3.9-2.4    c0.8,0.1,1.6,0.4,2.1,1c0.6,0.5,1.1,1.2,1.1,2c-0.1,0.6-0.4,1.2-0.9,1.5c-0.6,0.5-1.2,1.1-1.9,1.8c-0.7,0.7-1.4,1.5-2,2.4    c-0.7,0.9-1.1,2-1.3,3.1c2.1-0.2,4.3-0.7,6.2-1.5c2.8-1,6.4-4.1,10.8-9.2c0,0,1.3-1.5,1.5-1.5c0.2,0,0.3,0.1,0.4,0.2    c0.8,0.7,1.7,1.3,2.6,1.8l-0.2,1l-0.5,1.2c-1.7,2.8-2.5,3.7-2.5,5.7c0,0.3-0.1,0.8,0.7,1.1c0.6,0.2,2.5,0.1,3.1-0.1    c1.1-0.3,3.8-0.8,5.9-2.6c2-1.7,3.2-2.6,3.5-2.6H247.1z"
   id="path5" />
		<path
   class="st0"
   d="M294.8,94.2c0,0.3-0.1,0.5-0.2,0.5v-0.2c-0.6,0.3-1.2,0.7-1.8,1.2c-1.3,1.1-2.8,2-4.2,2.9    c-2.2,1.2-4.5,2.2-6.9,2.9c-3.2,0.9-6.5,1.3-9.9,1.2h-1.6c-0.8,0-1.6-0.1-2.4-0.4c-0.8-0.3-1.6-0.7-2.2-1.2    c-0.8-0.8-1.2-1.8-1.2-2.9c0.7-2.5,1.8-4,3.2-4.5l3.8-1.2c-0.8-0.3-1.7-0.5-2.6-0.6c-0.7-0.1-1.5-0.3-2.1-0.6    c-1.5,1.3-3.3,2.4-5.1,3.1c-2.1,0.9-4.3,1.7-6.5,2.2c-2.2,0.6-4.4,1-6.5,1.4c-1.5,0.3-3.1,0.4-4.6,0.5c-0.7,0-1.4,0-2.1-0.1    c-0.3-0.1-0.4-0.4-0.4-0.6c0-0.5,0.1-0.8,0.2-0.8v-0.2h0.8c0.3-0.2,1.2-0.5,2.8-1s3.2-1.1,5.1-1.9c1.9-0.8,3.9-1.6,6-2.6    c1.9-0.9,3.7-2,5.4-3.2c-0.1-0.2-0.4-1.2-0.5-1.5c-0.3-1.7,1.3-3.2,2.8-4c1-0.6,2.1-1.1,3.3-1.2c0.9,0.1,1.7,0.4,2.4,0.9    c0.9,0.6,1.5,1.7,1.4,2.9c0,0.8-0.1,1.3-0.2,1.5c1.6,0.4,3.2,0.9,4.8,1.5c1.1,0.5,2.2,1.1,3.2,1.8c0.9,0.5,1.5,1.5,1.5,2.5    c0.1,1-0.4,2-1.1,2.8c-0.8,0.7-1.7,1.2-2.6,1.6c-1,0.4-2,0.7-3.1,0.9c-0.8,0.1-2.6-0.1-2.4,0.8c0.1,0.3,0.4,0.4,0.7,0.4    c2.9,0.1,5.5-0.4,8.2-0.9c2.3-0.4,4.6-1,6.9-1.8c2-0.7,3.6-1.2,4.9-1.8c0.8-0.4,1.6-0.6,2.4-0.8h0.2c0.4,0,0.7,0.2,0.7,0.6    C294.8,94,294.8,94.1,294.8,94.2z"
   id="path6" />
		<path
   d="m 0.43441405,-17.481874 v -1.882461 H 11.057812 v 1.882461 H 6.7399998 V 0 H 4.7653905 V -17.481874 Z M 13.940742,-19.364335 h 3.85707 q 3.225195,0 4.370468,0.263281 1.724493,0.394922 2.803946,1.698164 1.079453,1.290078 1.079453,3.185703 0,1.579687 -0.750352,2.777617 -0.737187,1.19793 -2.119414,1.8166406 -1.382226,0.6055469 -3.817578,0.618711 L 26.328124,0 H 23.932265 L 16.98164,-9.0042184 H 15.875859 V 0 h -1.935117 z m 1.935117,1.895625 v 6.582031 l 3.330508,0.02633 q 1.935117,0 2.856601,-0.368594 0.934648,-0.368594 1.448047,-1.171601 0.526562,-0.816172 0.526562,-1.816641 0,-0.974141 -0.526562,-1.763984 -0.526563,-0.803008 -1.382227,-1.145274 -0.855664,-0.342265 -2.843437,-0.342265 z M 38.10996,-19.364335 47.140506,0 H 45.060585 L 42.019686,-6.371406 H 33.673671 L 30.645937,0 H 28.48703 l 9.149024,-19.364335 z m -0.236953,4.107187 -3.330508,7.0164452 h 6.621523 z m 10.346952,-2.224726 v -1.882461 h 10.623398 v 1.882461 H 54.525545 V 0 h -1.974609 v -17.481874 z m 11.479062,0 v -1.882461 h 10.623398 v 1.882461 H 66.004606 V 0 h -1.974609 v -17.481874 z m 22.629021,-2.369532 q 4.396797,0 7.358711,2.935586 2.961914,2.935586 2.961914,7.2270703 0,4.2519921 -2.961914,7.213906 -2.94875,2.961914 -7.200742,2.961914 -4.304648,0 -7.266562,-2.9487499 -2.961914,-2.9487499 -2.961914,-7.1349216 0,-2.7907808 1.342734,-5.1734768 1.355898,-2.382695 3.685937,-3.725429 2.330039,-1.355899 5.041836,-1.355899 z m 0.09215,1.895625 q -2.145742,0 -4.067696,1.118946 -1.921953,1.118945 -3.001406,3.01457 -1.079453,1.895625 -1.079453,4.2256638 0,3.4489842 2.382695,5.8316795 2.39586,2.3695311 5.76586,2.3695311 2.251054,0 4.159843,-1.0926171 1.921953,-1.0926172 2.988242,-2.9882421 1.079453,-1.8956249 1.079453,-4.2124999 0,-2.3037113 -1.079453,-4.1598433 -1.066289,-1.869297 -3.01457,-2.988242 -1.948281,-1.118946 -4.133515,-1.118946 z m 14.217186,-1.408554 h 3.857073 q 3.22519,0 4.37047,0.263281 1.72449,0.394922 2.80394,1.698164 1.07945,1.290078 1.07945,3.185703 0,1.579687 -0.75035,2.777617 -0.73718,1.19793 -2.11941,1.8166406 -1.38223,0.6055469 -3.81758,0.618711 L 109.02476,0 H 106.6289 L 99.678275,-9.0042184 H 98.572494 V 0 h -1.935117 z m 1.935117,1.895625 v 6.582031 l 3.330506,0.02633 q 1.93512,0 2.8566,-0.368594 0.93465,-0.368594 1.44805,-1.171601 0.52656,-0.816172 0.52656,-1.816641 0,-0.974141 -0.52656,-1.763984 -0.52656,-0.803008 -1.38223,-1.145274 -0.85566,-0.342265 -2.84343,-0.342265 z m 14.046056,-1.895625 h 1.93512 V 0 h -1.93512 z m 14.28301,0 L 135.93211,0 h -2.07993 l -3.04089,-6.371406 h -8.34602 L 119.43754,0 h -2.15891 l 9.14902,-19.364335 z m -0.23695,4.107187 -3.33051,7.0164452 h 6.62152 z"
   id="text6"
   class="st1 st2 st3"
   style="font-size:26.96px;font-family:CenturyGothic;fill:#00001c"
   transform="matrix(1 0 0 1 155.9602 71.9997)"
   aria-label="TRATTORIA" />
		<path
   d="M 10.916016,-13.253906 V 0 H 9.703125 V -1.6435547 Q 8.9296875,-0.703125 7.9628906,-0.22851563 7.0048828,0.24609375 5.8623047,0.24609375 q -2.0302734,0 -3.4716797,-1.46777345 -1.43261719,-1.4765625 -1.43261719,-3.5859375 0,-2.0654297 1.45019529,-3.5332031 1.4501953,-1.4677735 3.4892578,-1.4677735 1.1777344,0 2.1269532,0.5009766 0.9580078,0.5009766 1.6787109,1.5029297 v -5.4492185 z m -4.9218754,4.6318357 q -1.0283203,0 -1.8984375,0.5097656 -0.8701172,0.5009766 -1.3886718,1.4150391 -0.5097657,0.9140625 -0.5097657,1.9335937 0,1.0107422 0.5185547,1.9335938 0.5185547,0.9228515 1.3886719,1.4414062 0.8789062,0.50976565 1.8808594,0.50976565 1.0107421,0 1.9160156,-0.50976565 0.9052734,-0.5097656 1.3886719,-1.3798828 0.4921875,-0.8701172 0.4921875,-1.9599609 0,-1.6611328 -1.0986328,-2.7773438 Q 7.59375,-8.6220703 5.9941406,-8.6220703 Z M 23.229492,-9.5625 V 0 h -1.21289 v -1.6435547 q -0.773438,0.9404297 -1.740235,1.41503907 -0.958008,0.47460938 -2.100586,0.47460938 -2.030273,0 -3.471679,-1.46777345 -1.432618,-1.4765625 -1.432618,-3.5859375 0,-2.0654297 1.450196,-3.5332031 1.450195,-1.4677735 3.489257,-1.4677735 1.177735,0 2.126954,0.5009766 0.958007,0.5009766 1.678711,1.5029297 V -9.5625 Z m -4.921875,0.9404297 q -1.02832,0 -1.898437,0.5097656 -0.870117,0.5009766 -1.388672,1.4150391 -0.509766,0.9140625 -0.509766,1.9335937 0,1.0107422 0.518555,1.9335938 0.518555,0.9228515 1.388672,1.4414062 0.878906,0.50976565 1.880859,0.50976565 1.010742,0 1.916016,-0.50976565 0.905273,-0.5097656 1.388672,-1.3798828 0.492187,-0.8701172 0.492187,-1.9599609 0,-1.6611328 -1.098633,-2.7773438 -1.089843,-1.1162109 -2.689453,-1.1162109 z m 7.50586,-4.6318357 h 1.230468 V 0 h -1.230468 z m 10.731445,0.325195 h 2.540039 V 0 H 37.801758 V -11.663086 H 35.771484 Z M 46.643555,0.32519531 45.580078,-0.36035156 49.069336,-5.6513672 q -0.703125,0.2285156 -1.318359,0.2285156 -1.538086,0 -2.610352,-1.1074218 -1.072266,-1.116211 -1.072266,-2.7421875 0,-1.1162111 0.518555,-2.0126951 0.518555,-0.896485 1.467773,-1.432617 0.958008,-0.536133 2.047852,-0.536133 1.072266,0 1.977539,0.518554 0.914063,0.518555 1.432617,1.450196 0.518555,0.93164 0.518555,1.9863279 0,0.7998047 -0.325195,1.6787109 -0.316407,0.8701172 -1.142578,2.100586 z m 1.40625,-6.88183591 q 1.133789,0 1.924804,-0.7910156 0.799805,-0.7998047 0.799805,-1.9248047 0,-1.1250001 -0.799805,-1.9160161 -0.791015,-0.799804 -1.924804,-0.799804 -1.125,0 -1.924805,0.799804 -0.791016,0.791016 -0.791016,1.9160161 0,1.125 0.791016,1.9248047 0.799805,0.7910156 1.924805,0.7910156 z m 11.71582,-6.6972654 1.063477,0.694336 -3.489258,5.2910153 q 0.703125,-0.2373047 1.318359,-0.2373047 1.538086,0 2.610352,1.116211 1.072265,1.1074218 1.072265,2.7333984 0,1.1162109 -0.518554,2.0214844 -0.518555,0.89648435 -1.476563,1.43261716 -0.949219,0.52734375 -2.047851,0.52734375 -1.063477,0 -1.97754,-0.50976562 Q 55.415039,-0.703125 54.896484,-1.6347656 54.37793,-2.5664063 54.37793,-3.6298828 q 0,-0.7910156 0.316406,-1.6611328 0.325195,-0.8789063 1.151367,-2.109375 z m -1.415039,6.8818357 q -1.125,0 -1.924805,0.7998047 -0.791015,0.7910156 -0.791015,1.9248047 0,1.125 0.791015,1.9248047 0.799805,0.79101557 1.924805,0.79101557 1.125,0 1.916016,-0.79101557 0.799804,-0.7998047 0.799804,-1.9248047 0,-1.1337891 -0.799804,-1.9248047 -0.791016,-0.7998047 -1.916016,-0.7998047 z m 7.171875,-3.5595703 h -1.318359 q 0.360351,-1.5996094 1.379882,-2.4609374 1.019532,-0.861328 2.408203,-0.861328 1.010743,0 1.88086,0.46582 0.878906,0.457031 1.353515,1.239258 0.483399,0.782226 0.483399,1.6347655 0,1.6699219 -1.661133,2.6455078 0.931641,0.3779297 1.529297,1.1074219 0.84375,1.0283203 0.84375,2.3027344 0,1.0986328 -0.580078,2.1005859 -0.580078,0.99316406 -1.582031,1.53808594 -1.001954,0.54492187 -2.241211,0.54492187 -1.669922,0 -2.786133,-0.95800781 -1.116211,-0.9667969 -1.458985,-2.8300781 h 1.265625 q 0.333985,1.2568359 0.958008,1.8193359 0.799805,0.71191407 2.039063,0.71191407 1.40625,0 2.258789,-0.84374997 0.852539,-0.84375 0.852539,-1.9775391 0,-0.7558594 -0.430664,-1.415039 -0.421875,-0.6591797 -1.142578,-0.9931641 -0.711914,-0.3339844 -2.214844,-0.4130859 v -1.1865235 q 0.887695,0 1.617187,-0.3076172 0.729493,-0.3164062 1.054688,-0.7998047 0.333984,-0.4833984 0.333984,-1.0546875 0,-0.8437504 -0.676757,-1.4589844 -0.667969,-0.615234 -1.69629,-0.615234 -0.83496,0 -1.441406,0.474609 -0.606445,0.46582 -1.02832,1.5908204 z"
   id="text7"
   class="st4 st2 st5"
   style="font-size:18px;font-family:CenturyGothic;fill:#00000f"
   transform="matrix(1 0 0 1 211.24 127.72)"
   aria-label="dal 1963" />
	</g>
</g>
</svg>
